Coordinates
version=1
nRows=16
nColumns=36
inDegrees=yes

Units are S.I. units (second, meters, Newtons, ...)
If the header above contains a line with 'inDegrees', this indicates whether rotational values are in degrees (yes) or radians (no).

endheader
time	pelvis_tilt	pelvis_list	pelvis_rotation	pelvis_tx	pelvis_ty	pelvis_tz	hip_flexion_r	hip_adduction_r	hip_rotation_r	knee_angle_r	knee_angle_r_beta	ankle_angle_r	subtalar_angle_r	mtp_angle_r	hip_flexion_l	hip_adduction_l	hip_rotation_l	knee_angle_l	knee_angle_l_beta	ankle_angle_l	subtalar_angle_l	mtp_angle_l	lumbar_extension	lumbar_bending	lumbar_rotation	arm_flex_r	arm_add_r	arm_rot_r	elbow_flex_r	pro_sup_r	arm_flex_l	arm_add_l	arm_rot_l	elbow_flex_l	pro_sup_l
      1.54000000	     -3.81674805	      4.33524992	      0.26784958	     -0.29265547	      0.71755423	     -0.62702102	     68.06202744	    -12.68137696	      2.75737230	    104.38898159	      1.82193143	     33.64032886	     -9.30650945	     -7.47701430	     67.99516696	     -2.45194530	     -1.27404354	    102.39737248	      1.78717130	     28.98513565	     -5.14661385	     -7.47701430	    -34.33110373	     -2.86154845	     -3.16535862	     -2.98417489	    -18.78184320	    -19.10513348	    123.94637902	    103.20696538	    -14.35366374	     -8.27211247	    -16.83550691	    119.98304747	     98.93160829
      1.55000000	     -4.02510307	      4.07771943	      0.13165169	     -0.28952282	      0.70594303	     -0.62736607	     69.29442444	    -12.80014464	      2.78560271	    106.38106000	      1.85669976	     34.20014852	     -9.15086193	     -7.47721536	     69.01667153	     -2.67847353	     -1.08907439	    104.35513087	      1.82134063	     30.51579692	     -5.83265218	     -7.47721536	    -34.96060300	     -2.63024424	     -3.13274825	     -1.56098553	    -18.92016226	    -18.16066097	    122.76243968	    103.23359639	    -13.03004891	     -8.99820833	    -16.59597108	    118.56066152	     98.72311554
      1.56000000	     -4.53176608	      3.70171404	      0.00149927	     -0.28656824	      0.69495367	     -0.62748473	     70.62109231	    -12.76354217	      2.78629267	    108.08160749	      1.88637991	     35.00863412	     -8.44420000	     -7.47741477	     70.17106721	     -3.00707178	     -0.78885668	    106.02994213	      1.85057160	     32.28625349	     -6.12646661	     -7.47741477	    -35.15903267	     -2.30199983	     -3.11256664	     -0.09958127	    -19.04735178	    -17.07253046	    121.32051549	    103.32038395	    -11.78506848	     -9.63606207	    -16.51976330	    117.27573946	     98.58151222
      1.57000000	     -5.04035138	      3.27185929	     -0.13150234	     -0.28385229	      0.68493946	     -0.62734362	     71.74680135	    -12.66756850	      2.81628296	    109.61587031	      1.91315785	     36.72476344	     -6.45840458	     -7.47811342	     71.25338436	     -3.42252930	     -0.34184469	    107.58097189	      1.87764217	     34.29126457	     -4.97696501	     -7.47811342	    -35.33945944	     -1.90762350	     -3.72089650	      2.11362334	    -19.11098123	    -15.11494612	    119.40298319	    103.66721645	    -11.15978605	    -10.03406746	    -17.45352734	    116.60465802	     98.54487381
      1.58000000	     -5.46637894	      2.95539479	     -0.34591666	     -0.28128419	      0.67647144	     -0.62695517	     72.64113012	    -12.42757221	      2.86601098	    110.77286826	      1.93335127	     37.31382379	     -6.29243221	     -7.47830537	     72.20619688	     -3.78473059	     -0.05120010	    108.92126277	      1.90103466	     35.33841512	     -5.42444175	     -7.47830537	    -35.57576794	     -1.67891467	     -3.61603713	      3.63380313	    -18.99976519	    -14.39834826	    117.76700421	    103.63806176	     -9.79651850	    -10.66583212	    -17.48058033	    115.29927440	     98.42561740
      1.59000000	     -5.83946702	      2.64638391	     -0.51072320	     -0.27883693	      0.66916246	     -0.62657623	     73.35525357	    -12.12709351	      2.84575758	    111.77148557	      1.95078043	     38.05967057	     -6.10194352	     -7.47847490	     73.19245515	     -4.01620650	      0.40905625	    110.24035602	      1.92405718	     35.89678179	     -5.54587785	     -7.47847490	    -35.84604777	     -1.44078893	     -3.63581848	      5.25340843	    -18.77362841	    -13.66630101	    116.09370219	    103.57237443	     -8.40041039	    -11.25732244	    -17.54431281	    113.94470268	     98.29415556
      1.60000000	     -6.14166061	      2.41244936	     -0.65154596	     -0.27662512	      0.66303629	     -0.62632540	     73.95375037	    -11.91269577	      2.73997703	    112.63143019	      1.96578930	     38.75634300	     -6.00119047	     -7.47864816	     74.17669561	     -4.08923128	      0.88936783	    111.47947792	      1.94568394	     36.00527222	     -5.55931954	     -7.47864816	    -36.19391828	     -1.26860752	     -3.82418652	      6.93895578	    -18.45087271	    -12.93588922	    114.47630296	    103.51467536	     -7.05691420	    -11.82947785	    -17.65345994	    112.71262378	     98.16777333
      1.61000000	     -6.41461329	      2.24200414	     -0.77635568	     -0.27473496	      0.65799661	     -0.62607991	     74.53882868	    -11.81309908	      2.55937569	    113.40351399	      1.97926470	     39.25928155	     -5.95501850	     -7.47884956	     75.15925175	     -4.09952387	      1.34438114	    112.60489647	      1.96532620	     35.72143727	     -5.59509883	     -7.47884956	    -36.59131172	     -1.18879661	     -4.14229707	      8.65735708	    -18.14597199	    -12.11200839	    112.97622694	    103.51000014	     -5.75897058	    -12.39897120	    -17.84133026	    111.66021704	     98.04444728
      1.62000000	     -6.63835135	      2.13503820	     -0.85272604	     -0.27324338	      0.65406585	     -0.62604573	     75.08726899	    -11.77826556	      2.44930905	    114.08349625	      1.99113263	     39.54424118	     -5.84480752	     -7.47986733	     76.08359185	     -3.97811357	      1.71802035	    113.57788656	      1.98230808	     34.93834744	     -6.14210407	     -7.47986733	    -37.06776077	     -1.08500274	     -5.38536041	     11.17765061	    -17.75703835	    -10.07257394	    110.97791869	    103.95951041	     -5.25373608	    -12.80595271	    -19.17411242	    111.35821148	     97.87772494
      1.63000000	     -6.80000390	      2.12402058	     -0.91969802	     -0.27200139	      0.65148244	     -0.62605984	     75.55177003	    -11.74309869	      2.51733651	    114.60551236	      2.00024353	     39.50067108	     -5.86535537	     -7.47999710	     76.77460136	     -3.79158689	      1.98533528	    114.31089749	      1.99510153	     34.47898417	     -6.09220359	     -7.47999710	    -37.59210512	     -1.08796105	     -5.50326072	     12.53727830	    -17.40991503	     -9.81213602	    109.90364166	    103.95939905	     -3.54383023	    -13.40606569	    -18.91180768	    110.18784183	     97.73559549
      1.64000000	     -7.05236929	      2.08574330	     -1.00475643	     -0.27105245	      0.64989896	     -0.62608294	     76.02794117	    -11.69022020	      2.59427284	    114.90836087	      2.00552924	     39.34748381	     -5.74912623	     -7.48013279	     77.41386767	     -3.61247752	      2.23189643	    114.81584863	      2.00391459	     33.97080791	     -6.27694987	     -7.48013279	    -38.00241135	     -1.06183866	     -5.57696568	     13.92165713	    -17.18427699	     -9.47326169	    108.70281445	    103.96957453	     -1.71770020	    -13.98822355	    -18.59245355	    109.06295965	     97.60259520
      1.65000000	     -7.33165191	      2.03991591	     -1.12384141	     -0.27021554	      0.64938269	     -0.62594126	     76.37567435	    -11.58943882	      2.65787717	    115.01527710	      2.00739528	     39.21490337	     -5.54618882	     -7.48029250	     77.89135917	     -3.49616775	      2.38290900	    115.05801155	      2.00814113	     33.49249423	     -6.70326049	     -7.48029250	    -38.31042791	     -1.07587336	     -5.57184345	     15.35386669	    -17.00304061	     -9.04922433	    107.32341108	    103.98556132	      0.19144774	    -14.51513839	    -18.23391743	    107.86118788	     97.48782823
      1.66000000	     -7.62182560	      2.00677853	     -1.28498198	     -0.26939123	      0.64994774	     -0.62561577	     76.54337193	    -11.37940891	      2.74447435	    114.88840695	      2.00518097	     39.21622547	     -5.35453712	     -7.48044915	     78.13767822	     -3.47624807	      2.43717818	    115.05050172	      2.00801006	     33.19776583	     -7.18244873	     -7.48044915	    -38.52411299	     -1.11572808	     -5.55272867	     16.78629478	    -16.81643853	     -8.55042680	    105.88279401	    103.97794774	      2.15979720	    -14.98879165	    -17.87761475	    106.66289561	     97.41124338
      1.67000000	     -7.95113963	      1.97269926	     -1.44497568	     -0.26848545	      0.65149411	     -0.62509133	     76.53271741	    -11.08640645	      2.76318523	    114.53829028	      1.99907029	     39.39378831	     -5.21976165	     -7.48061245	     78.19229987	     -3.52731469	      2.42289500	    114.79771036	      2.00359802	     33.10039706	     -7.64219522	     -7.48061245	    -38.57522322	     -1.15334359	     -5.57781135	     18.29739916	    -16.63934412	     -7.94748415	    104.29574103	    103.93899054	      4.12693585	    -15.51474188	    -17.43669433	    105.34337843	     97.35660145
      1.68000000	     -8.34321927	      1.91597163	     -1.57716227	     -0.26747316	      0.65401328	     -0.62470816	     76.33679558	    -10.85121449	      2.63458676	    113.89147499	      1.98778123	     39.73853338	     -5.18164324	     -7.48074607	     78.08170979	     -3.59150170	      2.36416134	    114.28425692	      1.99463657	     33.23452430	     -8.01157198	     -7.48074607	    -38.46996263	     -1.13132665	     -5.65428656	     19.93801247	    -16.52881027	     -7.27478226	    102.75444631	    103.88911079	      6.10211560	    -16.09336320	    -16.85605398	    104.06490347	     97.30814089
      1.69000000	     -8.70655880	      1.79970166	     -1.62925481	     -0.26639709	      0.65752166	     -0.62445158	     75.89394947	    -10.65073114	      2.32139049	    113.06248871	      1.97331269	     40.24241907	     -5.23805195	     -7.48089634	     77.77569167	     -3.59507298	      2.34887338	    113.56402570	      1.98206616	     33.53288153	     -8.42527017	     -7.48089634	    -38.25064344	     -1.02495181	     -5.79713608	     21.79028877	    -16.73908257	     -6.37227186	    101.05339235	    103.85943105	      8.18971378	    -16.91637115	    -15.97549811	    102.55997221	     97.24654487
